<svg width="22" height="22" viewBox="0 0 22 22" fill="none" xmlns="http://www.w3.org/2000/svg">
  <path d="M5.8633 3.98159C5.26715 4.1024 4.18209 4.66521 3.4633 5.72518C2.78463 6.72597 2.38929 8.23447 3.21328 10.3903C3.85855 12.0785 5.31808 13.7942 6.97216 15.2694C8.41112 16.5527 9.92461 17.5899 11 18.2047C12.0753 17.5899 13.5888 16.5527 15.0278 15.2694C16.6819 13.7942 18.1414 12.0785 18.7867 10.3903C19.6107 8.23447 19.2153 6.72597 18.5367 5.72518C17.8179 4.66521 16.7328 4.1024 16.1367 3.98159C13.6288 3.47339 12.2251 5.08411 11 6.81585C9.77469 5.08393 8.35431 3.47679 5.8633 3.98159ZM11 4.32663C12.47 2.48247 14.4881 1.77691 16.5008 2.18478C17.5596 2.39935 19.0618 3.23314 20.054 4.69622C21.0863 6.21847 21.5256 8.35947 20.4992 11.0448C19.6983 13.14 17.9814 15.0918 16.248 16.6376C14.5012 18.1955 12.6402 19.4267 11.4248 20.0623L11 20.2845L10.5752 20.0623C9.35976 19.4267 7.49879 18.1955 5.75192 16.6376C4.01855 15.0918 2.30161 13.14 1.50078 11.0448C0.474384 8.35947 0.91366 6.21847 1.94595 4.69622C2.93811 3.23314 4.44034 2.39935 5.49918 2.18478C7.51189 1.77691 9.52995 2.48247 11 4.32663Z" fill="black"/>
</svg>
